<?xml version="1.0" standalone="no"?><!DOCTYPE svg PUBLIC "-//W3C//DTD SVG 1.1//EN" "http://www.w3.org/Graphics/SVG/1.1/DTD/svg11.dtd"><svg t="1608262449173" class="icon" viewBox="0 0 2519 1024" version="1.1" xmlns="http://www.w3.org/2000/svg" p-id="5847" xmlns:xlink="http://www.w3.org/1999/xlink" width="491.9921875" height="200"><defs><style type="text/css"></style></defs><path d="M38.472053 51.296071m76.944107 0l1384.993921 0q76.944107 0 76.944106 76.944107l0 436.016604q0 76.944107-76.944106 76.944107l-1384.993921 0q-76.944107 0-76.944107-76.944107l0-436.016604q0-76.944107 76.944107-76.944107Z" fill="#FFFFFF" p-id="5848"></path><path d="M115.41616 64.120089a64.120089 64.120089 0 0 0-64.120089 64.120089v436.016604a64.120089 64.120089 0 0 0 64.120089 64.120089h1384.993921a64.120089 64.120089 0 0 0 64.120088-64.120089V128.240178a64.120089 64.120089 0 0 0-64.120088-64.120089H115.41616z m0-12.824018h1384.993921a76.944107 76.944107 0 0 1 76.944106 76.944107v436.016604a76.944107 76.944107 0 0 1-76.944106 76.944107H115.41616a76.944107 76.944107 0 0 1-76.944107-76.944107V128.240178a76.944107 76.944107 0 0 1 76.944107-76.944107z" fill="#57439A" p-id="5849"></path><path d="M0 0m76.944107 0l1384.99392 0q76.944107 0 76.944107 76.944107l0 436.016604q0 76.944107-76.944107 76.944107l-1384.99392 0q-76.944107 0-76.944107-76.944107l0-436.016604q0-76.944107 76.944107-76.944107Z" fill="#FD8D40" p-id="5850"></path><path d="M76.944107 12.824018a64.120089 64.120089 0 0 0-64.120089 64.120089v436.016604a64.120089 64.120089 0 0 0 64.120089 64.120089h1384.99392a64.120089 64.120089 0 0 0 64.120089-64.120089V76.944107a64.120089 64.120089 0 0 0-64.120089-64.120089H76.944107z m0-12.824018h1384.99392a76.944107 76.944107 0 0 1 76.944107 76.944107v436.016604a76.944107 76.944107 0 0 1-76.944107 76.944107H76.944107a76.944107 76.944107 0 0 1-76.944107-76.944107V76.944107a76.944107 76.944107 0 0 1 76.944107-76.944107z" fill="#57439A" p-id="5851"></path></svg>